HIERARCHY
ROOT Hips
{
	OFFSET 0.00 0.00 0.00
	CHANNELS 6 Xposition Yposition Zposition Xrotation Yrotation Zrotation
	JOINT LeftUpLeg
	{
		OFFSET 3.34202 0.00000 0.00000
		CHANNELS 3 Xrotation Yrotation Zrotation
		JOINT LeftLeg
		{
			OFFSET 0.00000 -16.59631 0.00000
			CHANNELS 3 Xrotation Yrotation Zrotation
			JOINT LeftFoot
			{
				OFFSET 0.00000 -16.13662 0.00000
				CHANNELS 3 Xrotation Yrotation Zrotation
				JOINT LeftToeBase
				{
					OFFSET 0.00000 -1.70046 6.34620
					CHANNELS 3 Xrotation Yrotation Zrotation
					End Site
					{
						OFFSET 0.00000 0.00000 2.95275
					}
				}
			}
		}
	}
	JOINT RightUpLeg
	{
		OFFSET -3.34202 0.00000 0.00000
		CHANNELS 3 Xrotation Yrotation Zrotation
		JOINT RightLeg
		{
			OFFSET 0.00000 -16.59631 0.00000
			CHANNELS 3 Xrotation Yrotation Zrotation
			JOINT RightFoot
			{
				OFFSET 0.00000 -16.13662 0.00000
				CHANNELS 3 Xrotation Yrotation Zrotation
				JOINT RightToeBase
				{
					OFFSET 0.00000 -1.70046 6.34620
					CHANNELS 3 Xrotation Yrotation Zrotation
					End Site
					{
						OFFSET 0.00000 0.00000 2.95275
					}
				}
			}
		}
	}
	JOINT Spine
	{
		OFFSET 0.00000 0.03937 0.00000
		CHANNELS 3 Xrotation Yrotation Zrotation
		JOINT Spine1
		{
			OFFSET 0.00000 9.25793 0.00000
			CHANNELS 3 Xrotation Yrotation Zrotation
			JOINT Neck
			{
				OFFSET 0.00000 8.81471 0.00000
				CHANNELS 3 Xrotation Yrotation Zrotation
				JOINT Head
				{
					OFFSET 0.00000 6.89495 0.00000
					CHANNELS 3 Xrotation Yrotation Zrotation
					End Site
					{
						OFFSET 0.00000 4.52755 0.00000
					}
				}
			}
			JOINT LeftShoulder
			{
				OFFSET 0.00000 8.81471 0.00000
				CHANNELS 3 Xrotation Yrotation Zrotation
				JOINT LeftArm
				{
					OFFSET 7.31164 -0.00003 0.00000
					CHANNELS 3 Xrotation Yrotation Zrotation
					JOINT LeftForeArm
					{
						OFFSET 10.81844 -0.00004 0.00000
						CHANNELS 3 Xrotation Yrotation Zrotation
						JOINT LeftHand
						{
							OFFSET 10.19478 -0.00004 0.00000
							CHANNELS 3 Xrotation Yrotation Zrotation
							JOINT LeftHandThumb
							{
								OFFSET 0.00000 0.00000 0.00000
								CHANNELS 3 Xrotation Yrotation Zrotation
								End Site
								{
									OFFSET 0.00000 0.00000 3.93700
								}
							}
							JOINT L_Wrist_End
							{
								OFFSET 3.93700 -0.00001 0.00000
								CHANNELS 3 Xrotation Yrotation Zrotation
							}
						}
					}
				}
			}
			JOINT RightShoulder
			{
				OFFSET 0.00000 8.81471 0.00000
				CHANNELS 3 Xrotation Yrotation Zrotation
				JOINT RightArm
				{
					OFFSET -7.31164 -0.00003 0.00000
					CHANNELS 3 Xrotation Yrotation Zrotation
					JOINT RightForeArm
					{
						OFFSET -10.81844 -0.00004 0.00000
						CHANNELS 3 Xrotation Yrotation Zrotation
						JOINT RightHand
						{
							OFFSET -10.19478 -0.00004 0.00000
							CHANNELS 3 Xrotation Yrotation Zrotation
							JOINT RightHandThumb
							{
								OFFSET 0.00000 0.00000 0.00000
								CHANNELS 3 Xrotation Yrotation Zrotation
								End Site
								{
									OFFSET 0.00000 0.00000 3.93700
								}
							}
							JOINT R_Wrist_End
							{
								OFFSET -5.39369 -0.00002 0.00000
								CHANNELS 3 Xrotation Yrotation Zrotation
							}
						}
					}
				}
			}
		}
	}
}
MOTION
Frames: 8
Frame Time: 0.008333
 75.7025 33.7102 28.8412 12.3409 -39.5212 12.6742 8.2902 23.5097 -5.0097 17.1184 0.0000 -0.0000 -14.0608 0.3565 2.6450 -19.4085 0.0000 -0.0000 -30.1721 -22.1073 1.7538 7.4678 -0.0000 -0.0000 -6.5664 -4.4886 -0.0072 -16.4839 -0.0000 0.0000 -7.5035 -0.1454 -3.1347 2.2066 -4.3170 0.6929 13.5419 14.4878 -1.1408 -15.9229 5.2307 7.3022 -4.6856 7.6544 9.4542 -3.4054 -9.2621 -70.1570 -0.0003 -52.4871 -0.0001 -11.6247 -6.4139 6.2115 -0.0000 -0.0000 -0.0000 -0.0000 -0.0000 -0.0000 -7.5956 -6.2920 -6.5477 16.0806 18.4749 79.5573 -0.0001 17.3274 0.0000 -2.0297 0.3121 -10.2273 -0.0000 -0.0000 0.0000 -0.0000 -0.0000 0.0000
 75.5189 33.6766 29.0931 12.4888 -39.8761 12.7280 8.2408 24.0547 -4.7058 18.1931 -0.0000 0.0000 -13.9422 -0.1361 2.2654 -20.0488 0.0000 0.0000 -30.1940 -21.1037 1.8678 8.3323 0.0000 0.0000 -6.6896 -5.2731 -0.2591 -16.6178 -0.0000 -0.0000 -7.5407 -0.1449 -2.9646 2.1274 -4.3422 0.8214 13.4365 14.4042 -1.0756 -15.7894 5.4445 6.9722 -4.6286 7.6605 9.4470 -3.3295 -9.3346 -70.4343 -0.0003 -52.3483 -0.0001 -11.4728 -6.2759 6.2983 -0.0000 0.0000 -0.0000 -0.0000 0.0000 -0.0000 -7.5678 -6.3313 -6.5402 16.1904 18.3640 79.5115 -0.0001 17.3526 0.0000 -1.8357 0.2318 -10.1294 0.0000 0.0000 0.0000 0.0000 0.0000 0.0000
 75.2920 33.6457 29.3348 12.5135 -40.1549 12.3127 7.9559 24.3258 -3.8633 19.4575 0.0000 -0.0000 -13.8608 -0.4115 1.8041 -20.8190 0.0000 -0.0000 -29.7410 -20.5855 2.4679 8.7445 -0.0000 0.0000 -6.6213 -5.8704 -1.4858 -16.5801 0.0000 -0.0000 -7.6074 -0.1423 -2.6200 2.1468 -4.3901 1.1425 13.3181 14.2476 -0.9678 -15.5560 5.6338 6.6231 -4.5439 7.5680 9.4268 -3.2826 -9.4349 -70.7272 -0.0003 -52.0195 -0.0001 -11.2657 -6.3974 6.1923 -0.0000 0.0000 -0.0000 -0.0000 0.0000 -0.0000 -7.5086 -6.3459 -6.4765 16.3876 18.0796 79.4367 -0.0001 17.4993 0.0000 -1.7528 0.1614 -9.8767 -0.0000 -0.0000 0.0000 -0.0000 -0.0000 0.0000
 75.0673 33.6132 29.5843 12.5214 -40.4660 12.0567 7.7013 24.6494 -3.1962 20.8637 0.0000 -0.0000 -13.6168 -0.7326 1.8756 -21.6007 0.0000 0.0000 -29.3143 -19.9116 2.9143 9.0684 -0.0000 -0.0000 -6.3338 -6.6254 -2.0417 -16.7815 0.0000 0.0000 -7.6649 -0.1669 -2.4110 2.1924 -4.4442 1.4441 13.1997 14.0882 -0.8518 -15.3969 5.8888 6.2132 -4.5250 7.6884 9.4990 -3.2580 -9.6941 -71.1623 -0.0003 -51.6072 -0.0001 -10.9557 -6.2917 6.1447 0.0000 -0.0000 0.0000 0.0000 -0.0000 0.0000 -7.4816 -6.3477 -6.4713 16.5158 18.1011 79.3914 -0.0001 17.5427 0.0000 -1.7971 -0.0239 -9.8567 0.0000 0.0000 -0.0000 0.0000 0.0000 -0.0000
 74.8316 33.5857 29.8316 12.4863 -40.6492 11.6898 7.2381 24.7328 -2.3408 22.5035 0.0000 0.0000 -13.3342 -0.9654 1.5647 -22.5503 -0.0000 0.0000 -28.7573 -19.1885 3.4005 9.1646 0.0000 0.0000 -5.8220 -7.5056 -2.0512 -16.5609 0.0000 0.0000 -7.7197 -0.1936 -2.1751 2.2136 -4.5025 1.8057 13.1192 14.0023 -0.8448 -15.2254 5.9201 5.9618 -4.4505 7.6488 9.4591 -3.1572 -10.0065 -71.4948 -0.0003 -51.2003 -0.0001 -10.7241 -6.2984 6.2273 0.0000 0.0000 -0.0000 0.0000 0.0000 -0.0000 -7.4940 -6.4061 -6.4926 16.6692 18.0053 79.3848 -0.0001 17.5257 0.0000 -1.7506 -0.0958 -9.7623 -0.0000 0.0000 -0.0000 -0.0000 0.0000 -0.0000
 74.6002 33.5634 30.0782 12.5180 -40.9123 11.4621 6.7318 24.7319 -1.6095 24.2040 -0.0000 0.0000 -12.9062 -1.0729 1.2118 -23.5145 0.0000 -0.0000 -28.3093 -18.3321 3.8007 9.3212 0.0000 0.0000 -5.2117 -8.2081 -1.9052 -16.1845 0.0000 0.0000 -7.7826 -0.1998 -2.0124 2.1979 -4.5300 2.1409 12.9729 13.8612 -0.7420 -14.9047 6.0718 5.6314 -4.3473 7.8446 9.5147 -3.2619 -10.5519 -72.0071 -0.0003 -50.4942 -0.0001 -10.3402 -6.4678 6.3831 0.0000 -0.0000 -0.0000 0.0000 -0.0000 -0.0000 -7.4762 -6.3615 -6.4514 16.8296 17.9295 79.3172 -0.0001 17.5150 0.0000 -1.7519 -0.1749 -9.5787 -0.0000 -0.0000 -0.0000 -0.0000 -0.0000 -0.0000
 74.3647 33.5501 30.3130 12.5811 -41.1475 11.1639 5.9590 24.6334 -0.6930 26.1855 0.0000 0.0000 -12.3496 -1.1847 0.7266 -24.6313 0.0000 -0.0000 -27.9138 -17.7096 4.2627 9.6173 0.0000 0.0000 -4.9371 -8.5653 -1.9932 -15.7779 0.0000 0.0000 -7.7963 -0.1641 -1.7812 2.0901 -4.5224 2.5104 12.8745 13.8101 -0.7673 -14.6695 6.0191 5.4505 -4.2945 7.8195 9.4348 -3.1191 -10.9267 -72.3587 -0.0003 -50.0139 -0.0001 -9.9628 -6.3406 6.3396 -0.0000 -0.0000 0.0000 -0.0000 -0.0000 0.0000 -7.5337 -6.4569 -6.4595 16.9859 17.8623 79.2863 -0.0001 17.4561 0.0000 -1.6605 -0.3310 -9.2626 -0.0000 0.0000 0.0000 -0.0000 0.0000 0.0000
 74.1338 33.5475 30.5373 12.7344 -41.5280 10.9413 5.0643 24.5245 0.2007 28.2782 0.0000 -0.0000 -11.5385 -1.2645 0.3144 -25.9171 0.0000 0.0000 -27.7014 -17.1747 4.7231 10.2538 0.0000 0.0000 -5.1243 -8.6431 -2.1804 -15.6170 0.0000 0.0000 -7.7945 -0.0788 -1.5635 1.9469 -4.4638 2.8741 12.6552 13.6905 -0.6596 -14.2396 6.1426 5.1491 -4.3100 7.9522 9.4196 -3.0522 -11.3346 -72.8502 -0.0002 -49.3804 -0.0001 -9.3712 -6.1906 6.1855 0.0000 -0.0000 0.0000 0.0000 -0.0000 0.0000 -7.5391 -6.5286 -6.3513 17.1175 18.0434 79.1450 -0.0001 17.3525 0.0000 -1.7059 -0.3279 -9.3023 -0.0000 -0.0000 0.0000 -0.0000 -0.0000 0.0000
